<svg xmlns="http://www.w3.org/2000/svg" viewBox="0 0 1970.843 338.901">
  <g id="Group_14" data-name="Group 14" transform="translate(-160.157 -9883.125)">
    <path id="footer" d="M0,3549.814s337.726-104.185,700.25-38.349,508.894,8.362,577.731,0,359.569-63.476,447.79-51.635,126.068-2.123,243.412,51.635c3.732,158.1,0,285.607,0,285.607H0Z" transform="translate(160.157 6424.954)" fill="#f8efee"/>
    <g id="Group_7" data-name="Group 7" transform="matrix(0.996, -0.087, 0.087, 0.996, 222.577, 9979.903)">
      <path id="Path_6" data-name="Path 6" d="M521.711,148.179q-1.594-.144-3.26-.364a9.771,9.771,0,0,1-3.315-1.095,11.019,11.019,0,0,1-3.242-2.819,26.387,26.387,0,0,1-2.8-4.892,40.428,40.428,0,0,1-1.964-5.934,44.48,44.48,0,0,1-1.686-8.564,40.764,40.764,0,0,1,.161-7.895,11.989,11.989,0,0,0,.253-1.822q.139-1.488.4-3.266t.409-2.718q.311-1.788,1.133-4.874t1.918-6.1q1.628-4.765,2.782-7.6a40.219,40.219,0,0,1,2.324-4.867,30.722,30.722,0,0,1,2.816-4.058q1.642-2.021,4.28-5.081a8.8,8.8,0,0,1,4.184-2.9,9.663,9.663,0,0,1,5.034-.3,7.5,7.5,0,0,1,4.218,2.437,10.066,10.066,0,0,1,2.391,4.361,21.58,21.58,0,0,1,.785,5.974,26.776,26.776,0,0,1-.754,6.365,17.687,17.687,0,0,1-2.262,5.45q-.923,1.464-2.006,1.476a6.552,6.552,0,0,1-2.766-.8,11.833,11.833,0,0,1-1.438-1.585q-.128-.263.228-.466a17.282,17.282,0,0,0,.891-2.655q.505-1.845.942-3.921a22.718,22.718,0,0,0,.5-3.294q-.351-4.1-.528-5.8a2.683,2.683,0,0,0-1.276-2.282,1.331,1.331,0,0,0-1.179.038,8.89,8.89,0,0,0-2.075,1.6,23.807,23.807,0,0,0-4.552,5.757,53.776,53.776,0,0,0-4.467,8.932q-2.415,5.995-3.906,10.521a33.106,33.106,0,0,0-1.687,8.884c-.058.282-.176,1.184-.362,2.7a5.191,5.191,0,0,1,.232,1.883,15.516,15.516,0,0,1-.157,2.694,46,46,0,0,0,1.293,9.177,35.03,35.03,0,0,0,2.848,7.929q1.728,3.3,3.558,4.276a5.068,5.068,0,0,0,3.55-.421,24.116,24.116,0,0,0,4.55-2.708q2.479-1.811,5-3.838a34.183,34.183,0,0,0,3.62-3.24,20.11,20.11,0,0,0,2.308-2.764A15.234,15.234,0,0,1,540.268,128a4.944,4.944,0,0,1,1.883-1.19,4.124,4.124,0,0,1,1.422-.81c.145.026.289.286.431.777a4.618,4.618,0,0,1-.658,3.288,16.432,16.432,0,0,1-2.951,3.948,15.174,15.174,0,0,1-1.555,2.146,11.6,11.6,0,0,1-2.208,2.036,30.744,30.744,0,0,1-4.146,4.291,33.507,33.507,0,0,1-5.362,3.841A13.56,13.56,0,0,1,521.711,148.179Z" transform="translate(-505.319 -57.066)" fill="#6c6c6c"/>
      <path id="Path_7" data-name="Path 7" d="M553.142,127.683a3.717,3.717,0,0,1-2.093,0q-.836-.294-2.1-.881a13.052,13.052,0,0,1-3.47-2.976,5.72,5.72,0,0,1-1.274-3.2,5.351,5.351,0,0,0-.318-2.2c-.4-.233-.543-.413-.437-.537a1.515,1.515,0,0,0,.266-.606c.387-.093.433-.465.141-1.121q-.372-.7-.007-3.456a26.421,26.421,0,0,1,1.282-5.343q.358-1.071,1.151-2.891t1.827-3.7a24.1,24.1,0,0,1,1.973-3.089,25.782,25.782,0,0,1,3.565-3.912,20.289,20.289,0,0,1,6.47-3.517q.82-.2,2.629.954a8.085,8.085,0,0,1,3.775,1.471,7.854,7.854,0,0,1,2.219,3.521,22.139,22.139,0,0,1,1.091,6.505q.132,3.772-2.466,10.023a26.54,26.54,0,0,1-3.258,6.061,37.1,37.1,0,0,1-4.065,4.376,19.822,19.822,0,0,1-3.22,2.792A15.125,15.125,0,0,1,553.142,127.683Zm6.923-12.121a33.9,33.9,0,0,0,2.587-5.655,31.587,31.587,0,0,0,1.3-6.336,9.225,9.225,0,0,0-.129-2.684A17.487,17.487,0,0,0,563.084,98q-.468-1.319-1.092-1.37a4.475,4.475,0,0,0-2.905.249,7.745,7.745,0,0,0-3.143,2.675,24.386,24.386,0,0,0-3.785,7.274,80.411,80.411,0,0,0-2.4,9.216q-.648,3.71.652,5.524t3.912.548Q556.932,120.852,560.065,115.562Z" transform="translate(-498.223 -53.824)" fill="#6c6c6c"/>
      <path id="Path_8" data-name="Path 8" d="M608.5,112.736a6.021,6.021,0,0,1-3.374-.191,6.216,6.216,0,0,1-2.66-2.282,21.808,21.808,0,0,1-1.2-2.854,21.42,21.42,0,0,1-.834-3.069,4.248,4.248,0,0,1-.075-1.991,1.793,1.793,0,0,0,.083-1.434q-.238-.982-.451-2.115-.457-1.868-1.332-1.948a3.556,3.556,0,0,0-2.276,1.068q-1.56,1.374-4.063,3.655t-5.185,4.944q-2.682,2.66-4.988,5.444a12.718,12.718,0,0,0-1.936,3.937c-.142.843-.477,1.313-1,1.412a1.34,1.34,0,0,1-1.31.3,18.586,18.586,0,0,1-1.72-.8q-.829-.626-1.645-1.2a5.525,5.525,0,0,1-1.084-.919,13.514,13.514,0,0,1-.084-2.038q.007-1.564.16-3.16c.1-1.062.187-1.762.26-2.1.324-.062.541-.427.651-1.1a9.418,9.418,0,0,1,.729-2.291,14.917,14.917,0,0,1,.444-3.262q.463-2.091.86-3.732a22.339,22.339,0,0,0,1.189-4.138,15.686,15.686,0,0,0,.017-3.916.756.756,0,0,1,.062-.745.9.9,0,0,1,.622-.459,1.783,1.783,0,0,1,1.775-.777,4.08,4.08,0,0,1,2.231,1.093,6.166,6.166,0,0,1,2.3,4.4q.112,2.472-1.877,7.447-.4,1.639-.588,2.507a3.59,3.59,0,0,0-.1,1.339q1.8-1.71,2.95-2.858t1.841-1.768A22.827,22.827,0,0,1,588.818,97q1.525-1.559,3.3-3.12a11.162,11.162,0,0,1,2.72-1.934q.708-.525,1.527-1.023a4.258,4.258,0,0,1,1.206-.572,4.057,4.057,0,0,1,2.154.423,14.626,14.626,0,0,1,2.654,1.452,4.7,4.7,0,0,1,1.619,1.6,5.587,5.587,0,0,0,.192.746,5.85,5.85,0,0,0,.289.727,12.565,12.565,0,0,1,1.066,3.221,28.357,28.357,0,0,1,.569,3.8q.125,1.737-.308,2.113c.123.3.317.428.578.378.049.253.08.41.089.473q-.488.091-.238.877a4.842,4.842,0,0,0,.967,1.625,6.746,6.746,0,0,0,1.41,1.3Q610,110,610,111.033T608.5,112.736Z" transform="translate(-492.645 -54.436)" fill="#6c6c6c"/>
      <path id="Path_9" data-name="Path 9" d="M618.309,118.571a5.014,5.014,0,0,1-2.37-.781,10.048,10.048,0,0,1-2.266-1.813A7.946,7.946,0,0,1,612.237,114c-.018-.126-.218-.358-.6-.692q-.434-.228-.8-2.458a39.287,39.287,0,0,1-.465-5.029,35.193,35.193,0,0,1,.068-4.475q.274-1.589.887-4.348t1-4.947l1.874-5.9-4.087-.486a2.122,2.122,0,0,1-1.24-.6,1.726,1.726,0,0,1-.578-.889,3.247,3.247,0,0,1,.622-1.981q.729-1.217,1.125-1.276a11.357,11.357,0,0,0,1.834-.163q1.331-.189,2.594-.466a9.542,9.542,0,0,0,1.549-.415,3.777,3.777,0,0,0,.712-.635,2.033,2.033,0,0,0,.45-1.083q.342-1.116.609-2.076a17.733,17.733,0,0,1,.792-2.2q.511-1.333.833-2.254t1.09-2.581q.4-.735.853-1.771a5.99,5.99,0,0,1,1.246-1.827,2.6,2.6,0,0,1,1.72-.973,4.7,4.7,0,0,1,2.594.942,4.1,4.1,0,0,1,1.089,1.3q.164.463-.53,1.919a32.6,32.6,0,0,1-1.363,3.494q-.8,1.763-1.458,3.507-1.279,2.317-.253,2.463t5.458-1.165a6.729,6.729,0,0,1,4.168-.35,2.932,2.932,0,0,1,1.808,2.121q.619,2.24-.1,2.828t-4.461,1.12a31.821,31.821,0,0,1-3.974,1q-1.667.286-2.454.4-1.267.278-1.66.332a5.659,5.659,0,0,0-1.154.359,2.021,2.021,0,0,0-1.044.778,7.3,7.3,0,0,0-.569,1.294,8.679,8.679,0,0,0-.9,2.166,40.044,40.044,0,0,1-1.469,3.8q-.813,4.192-1.232,8.28t-.486,7.881a5.684,5.684,0,0,0,.566,3.267q.619.836,2.714.731a27.056,27.056,0,0,0,3.488-.544,19.386,19.386,0,0,0,3.715-1.062c.675-.42,1.384-.86,2.121-1.321a22.078,22.078,0,0,0,2.011-1.4q.818-.6,2.441-1.9.382-.831,1.015-.63a2.364,2.364,0,0,1,1.188,1.287,6.511,6.511,0,0,1-.154,2.448q-.319,1.306-3.223,3.466a22.329,22.329,0,0,1-7.667,4.342A19.859,19.859,0,0,1,618.309,118.571Z" transform="translate(-486.142 -58.622)" fill="#6c6c6c"/>
      <path id="Path_10" data-name="Path 10" d="M637.883,110.615a3.35,3.35,0,0,0-1.1-1.1c-.422-.25-.645-.5-.669-.758a7.279,7.279,0,0,0-.126-.808,1.372,1.372,0,0,0-.52-.772q-.552-.528-.146-2.641a37.708,37.708,0,0,1,1.508-5.255q1.105-3.141,2.675-6.664a11.111,11.111,0,0,0,1.4-2.157,10.337,10.337,0,0,1,1.037-1.738,1.081,1.081,0,0,1,.23-.745.91.91,0,0,1,.662-.4L642.778,87a3.467,3.467,0,0,1,.79-1.714q.831-1.235,2.09-2.752t2.623-2.945a17.155,17.155,0,0,1,2.3-2.1,10.4,10.4,0,0,1,4.155-2.026,4.927,4.927,0,0,1,3.9.6l1.078.864q.753.607,1.772,1.332t2.084,1.495l3.957,2.817-1.338,4.949a12.548,12.548,0,0,0-.019,6.757,16.353,16.353,0,0,0,2.391,4.795,5.131,5.131,0,0,0,2.217,1.821,7.541,7.541,0,0,0,3.026.877,3.3,3.3,0,0,1,1.539.435,1.739,1.739,0,0,1,.835,1.467,2.663,2.663,0,0,1-.254,1.567,2.085,2.085,0,0,1-1.314.894,8.758,8.758,0,0,1-6.23-.966,17.5,17.5,0,0,1-5.784-5.83,12.784,12.784,0,0,1-1.24-2.057,15.661,15.661,0,0,1-.934-1.987q-.352.516-1.32,1.907t-1.51,2.023q-6.39,7.541-11.269,10.36T637.883,110.615Zm5.19-5.935a16.259,16.259,0,0,0,4.359-3.059q3.105-3.085,6.211-6.753a50.367,50.367,0,0,0,4.917-6.73l1.857-3.647a7.422,7.422,0,0,0-2.408-2.816A3.6,3.6,0,0,0,656,81.041q-1.286.119-3.6,2.65a44.338,44.338,0,0,0-4.826,6.624,76.209,76.209,0,0,0-4.663,8.927q-.811,2.007-1.967,5.683Q641.012,105.6,643.073,104.68Z" transform="translate(-481.138 -56.604)" fill="#6c6c6c"/>
      <path id="Path_11" data-name="Path 11" d="M683.794,109.779a10.64,10.64,0,0,1-5.278-.123,7.7,7.7,0,0,1-3.937-2.629,8.327,8.327,0,0,1-1.645-4.982,19.02,19.02,0,0,1,.425-6.7,38.837,38.837,0,0,1,2.622-7.751,35.935,35.935,0,0,1,3.954-6.8q1.893-2.384,3.8-4.384a12.477,12.477,0,0,1,3.47-2.738,9.865,9.865,0,0,1,2.6-.827,18.04,18.04,0,0,1,2.031-.225,14.116,14.116,0,0,1,3.483,1.253q1.879.932,1.925,2.085l.517.46c.4-.017.76.387,1.094,1.205a10.352,10.352,0,0,1,.66,2.81,4.7,4.7,0,0,1-.389,2.661,8.21,8.21,0,0,1-1.262,3.223q-.941,1.388-1.733,1.418a5.4,5.4,0,0,0-.744.078c-.232.043-.339.223-.326.542s-.165.456-.531.406a2.388,2.388,0,0,1-1.166-.578,3.278,3.278,0,0,1-.948-1.26,5.934,5.934,0,0,1,.331-1.648,27.706,27.706,0,0,0,.675-3.008q.488-2.712-.242-3.5t-2.683.06a18.568,18.568,0,0,0-4.567,3.936,26.066,26.066,0,0,0-3.872,6.359,50.071,50.071,0,0,0-3,9.593,11.13,11.13,0,0,0-.291,3.859q.214,1.626.516,1.709a10.659,10.659,0,0,0,3.782-.008,10.054,10.054,0,0,0,3.444-.957,32.933,32.933,0,0,0,3.493-2.209q1.933-1.377,3.381-2.493a6.644,6.644,0,0,0,1.153-1.008,5.723,5.723,0,0,1,1.447-1.116,3.315,3.315,0,0,1,1.337-1.4,6.24,6.24,0,0,1,1.779-.263,6.073,6.073,0,0,1,1.515.515,2.666,2.666,0,0,1,.974.73c.175.25.069.478-.32.687-.266.009-.426.178-.478.5.142.251-.116.791-.781,1.619a35.651,35.651,0,0,1-5.457,5.318,4.634,4.634,0,0,1-1.994,1.09c-.663.027-.986.231-.97.617q.007.194-1.4,1.018t-3.216,1.668A18.164,18.164,0,0,1,683.794,109.779Z" transform="translate(-474.126 -57.105)" fill="#6c6c6c"/>
      <path id="Path_12" data-name="Path 12" d="M709.692,112.159a5,5,0,0,1-2.23-1.12,10.1,10.1,0,0,1-1.975-2.126,8,8,0,0,1-1.129-2.17c0-.127-.164-.386-.492-.772q-.4-.29-.431-2.548a39.072,39.072,0,0,1,.28-5.044,35.813,35.813,0,0,1,.724-4.415q.505-1.532,1.52-4.17t1.72-4.745l2.72-5.556-3.97-1.082a2.13,2.13,0,0,1-1.139-.776,1.729,1.729,0,0,1-.441-.964,3.249,3.249,0,0,1,.907-1.867c.6-.732,1.033-1.1,1.3-1.1a11.37,11.37,0,0,0,1.84.108q1.342.009,2.635-.079a9.622,9.622,0,0,0,1.593-.182,3.824,3.824,0,0,0,.8-.523,2.035,2.035,0,0,0,.6-1c.337-.7.638-1.357.909-1.964A17.81,17.81,0,0,1,716.536,68q.7-1.244,1.157-2.107T719.15,63.5q.5-.667,1.1-1.626a5.979,5.979,0,0,1,1.5-1.624,2.6,2.6,0,0,1,1.845-.708,4.7,4.7,0,0,1,2.427,1.312,4.111,4.111,0,0,1,.885,1.447c.063.321-.2.928-.807,1.821a32.578,32.578,0,0,1-1.86,3.254q-1.055,1.628-1.961,3.255-1.6,2.1-.611,2.4t5.571-.349a6.72,6.72,0,0,1,4.173.267,2.931,2.931,0,0,1,1.477,2.363q.283,2.308-.515,2.784t-4.577.451a31.651,31.651,0,0,1-4.08.406c-1.128.026-1.955.037-2.486.033-.861.058-1.426.087-1.689.084a5.645,5.645,0,0,0-1.195.185,2.02,2.02,0,0,0-1.147.617,7.305,7.305,0,0,0-.755,1.2,8.8,8.8,0,0,0-1.205,2.011,40.188,40.188,0,0,1-2.012,3.543q-1.42,4.027-2.437,8.008t-1.639,7.724a5.685,5.685,0,0,0,.077,3.316q.491.916,2.579,1.121a26.883,26.883,0,0,0,3.53-.025,19.333,19.333,0,0,0,3.83-.5c.729-.314,1.5-.648,2.293-1a22.625,22.625,0,0,0,2.193-1.09q.9-.475,2.7-1.521.5-.763,1.1-.473a2.359,2.359,0,0,1,.986,1.447,6.5,6.5,0,0,1-.514,2.4q-.505,1.247-3.7,2.955a22.333,22.333,0,0,1-8.222,3.166A19.814,19.814,0,0,1,709.692,112.159Z" transform="translate(-468.421 -59.541)" fill="#6c6c6c"/>
      <path id="Path_13" data-name="Path 13" d="M793.811,112.2a6.856,6.856,0,0,1-1.383-1.112,5.805,5.805,0,0,1-1.4-2.805,15.566,15.566,0,0,1-.145-5.28q.4-2.856.62-4.476c.147-1.078-.045-1.648-.571-1.7a7.563,7.563,0,0,0-3.172,1.165,52.22,52.22,0,0,0-5.508,3.429q-3.132,2.185-6.418,4.93-1.1.947-2.134,1.754a4.343,4.343,0,0,1-1.95.955,2.513,2.513,0,0,1-2.01-.84l-1-.974a1.882,1.882,0,0,1-.487-1.065,2.543,2.543,0,0,1,.223-1.185l2.938-6.066q1.941-3.274,2.7-4.789a8.185,8.185,0,0,0,.8-1.944c.031-.287-.057-.407-.262-.365a8.113,8.113,0,0,0-2.467.658,5.44,5.44,0,0,0-2.242,1.358q-.4-.043-1.278.735A10.174,10.174,0,0,1,766.522,96a14.891,14.891,0,0,1-3.03,2.676q-2.219,1.6-4.4,3.306a17.736,17.736,0,0,0-2.792,2.314q-1.4,1.4-2.358,2.457t-1.256,1.027a4.223,4.223,0,0,1-2.255-.912,3.941,3.941,0,0,1-1.3-2.359,6.616,6.616,0,0,1,.477-4.539q1.1-2.831,2.58-7.41a20.386,20.386,0,0,0,.714-2.05,7.757,7.757,0,0,1,.492-1.35q.32-.69,1.127-2.152t2.509-4.374A15.879,15.879,0,0,0,758.158,80a9.4,9.4,0,0,0,.285-1.274,2.511,2.511,0,0,1,.714-1.568,3.038,3.038,0,0,1,1.435-.815,2.414,2.414,0,0,1,1.494.06,3.538,3.538,0,0,1,1.818,1.254,3.655,3.655,0,0,1,.687,2.488,5.236,5.236,0,0,1-.414,2.034q-.391.877-.769,1.61l-1.359,2.465q-.6,1-1.607,2.924t-1.77,3.533a10.835,10.835,0,0,0-.8,1.9c.044.2.281.174.708-.071s.977-.6,1.662-1.081,1.381-.934,2.095-1.375a40.07,40.07,0,0,1,5.082-3.184,52.9,52.9,0,0,1,5.311-2.485,22.87,22.87,0,0,1,3.829-1.241,3.571,3.571,0,0,1,2.262.819q.584.641,2,2.336a2.667,2.667,0,0,1,.611,1.8,6.889,6.889,0,0,1-.31,2q-.14.372-.789,1.8t-1.822,4.012q2.473-1.673,3.975-2.625t2.251-1.456a21.18,21.18,0,0,1,7.106-2.923q2.948-.463,4.437,2.5a3.255,3.255,0,0,1,1,2.422q-.082,1.249-.4,4.306-.032,1.253-.114,2.983t-.078,3.131a4.9,4.9,0,0,0,.168,1.709,2.185,2.185,0,0,0,1.072.741,17.1,17.1,0,0,0,2.179.663q1.464.349,1.65,1.429t-1.5,1.871a5.776,5.776,0,0,1-3.343.422A11.593,11.593,0,0,1,793.811,112.2Z" transform="translate(-459.95 -56.429)" fill="#6c6c6c"/>
      <path id="Path_14" data-name="Path 14" d="M811.934,116.556a8.853,8.853,0,0,1-5.095,1.171,10.533,10.533,0,0,1-5.1-1.707,10.171,10.171,0,0,1-3.635-4.088,10.668,10.668,0,0,1-1.331-5.154,27.5,27.5,0,0,1,1.116-7.071,17.918,17.918,0,0,1,3.73-7.011,29.965,29.965,0,0,1,6.391-5.772,18.744,18.744,0,0,1,6.826-3.018,4.584,4.584,0,0,1,2.654-.47q1.021.226,3.144.785a11.047,11.047,0,0,1,3.233,1.434,5.033,5.033,0,0,1,1.553,1.828,7.7,7.7,0,0,1,1.478,3.131,8.173,8.173,0,0,1,.026,2.784,12.371,12.371,0,0,1-3.764,4.567,19.053,19.053,0,0,1-7.355,3.754,14.32,14.32,0,0,1-4.8-.241,7.955,7.955,0,0,1-4-1.957q-1.731-1.078-2.491-.185a15.935,15.935,0,0,0-1.9,4.6q-1.013,3.53-.317,5.356a3.792,3.792,0,0,0,2.311,2.4q1.9.717,3,1.051a4.787,4.787,0,0,0,2.931-.323,17.53,17.53,0,0,1,2.148-.752,1.8,1.8,0,0,0,.7-.269q.285-.192,1.429-.973c.53-.362.948-.631,1.248-.808a1.34,1.34,0,0,1,.938-.18,1.2,1.2,0,0,1,.809.579,2.672,2.672,0,0,0,.677.75q.979.169.244,1.212a10.7,10.7,0,0,1-2.571,2.336A20.538,20.538,0,0,1,811.934,116.556Zm3.36-20.092a11.211,11.211,0,0,0,2.49-.985,10.861,10.861,0,0,0,2.352-1.643,3.354,3.354,0,0,0,1.149-1.7,2.7,2.7,0,0,0-.89-2.445q-1.121-1.119-3.78-.894a7.152,7.152,0,0,0-2.687.95,23.592,23.592,0,0,0-3.013,1.968,24.523,24.523,0,0,0-2.367,2.03q-.915.916-.751,1.139c.142.351.655.682,1.543,1a13.915,13.915,0,0,0,3.062.674A8.221,8.221,0,0,0,815.293,96.464Z" transform="translate(-451.036 -55.101)" fill="#6c6c6c"/>
      <path id="Path_15" data-name="Path 15" d="M825.508,126.4a8.706,8.706,0,0,1-3.193-.045,5.224,5.224,0,0,1-2.441-1.652q-1.486-2.087-.48-3.69a7.846,7.846,0,0,1,3.893-2.753,7.943,7.943,0,0,1,2.819-.574,5.951,5.951,0,0,1,2.435,1.209q2.534,2.411,1.731,4.5T825.508,126.4Zm8.47-13.908q-2.822-.112-3.052-3.308t2.257-8.163a19.041,19.041,0,0,0,1.445-2,5.571,5.571,0,0,0,.76-1.655q.649-1.137,1.635-2.647T839,91.9c.661-.874,1.125-1.446,1.386-1.718.259.056.582-.1.968-.48a2.427,2.427,0,0,0,.719-1.223,5.136,5.136,0,0,1,.7-1.617,3.628,3.628,0,0,1,1.012-1.159,1.883,1.883,0,0,1,.61-.951,1.835,1.835,0,0,0,.59-.855,1,1,0,0,1,.386-.606,1.014,1.014,0,0,0,.383-.6q1.2-1.315,3.241-3.974t4.158-5.644q2.112-2.986,3.631-5.314a14.456,14.456,0,0,0,1.636-2.892,2.394,2.394,0,0,1,.823-1,1.216,1.216,0,0,1,1.207.062,1.712,1.712,0,0,1,.849-.163,6.687,6.687,0,0,1,.786.12q.518.9,1.039,1.795a2.35,2.35,0,0,1,.553,1.692,18.646,18.646,0,0,1-.325,1.993,9.784,9.784,0,0,1-2.225,3.749q-1.751,1.984-3.887,4.376-1.354,1.578-2.62,2.976a6.792,6.792,0,0,0-1.345,1.775,2.892,2.892,0,0,1-.632,1.044c-.365.447-.792,1.009-1.276,1.692q-.785.817-1.746,1.985t-1.728,2.136a4.841,4.841,0,0,0-.828,1.247,6.623,6.623,0,0,1-.4.7,2.218,2.218,0,0,1-.7.637c-.26-.056-.5.255-.707.929a8.3,8.3,0,0,1-.81,1.645,22.582,22.582,0,0,1-2.1,2.938q-2.918,4.585-4.327,7.377a32.583,32.583,0,0,0-2.048,4.819,16.5,16.5,0,0,1-.905,2.558A1.8,1.8,0,0,1,833.978,112.488Z" transform="translate(-446.898 -58.762)" fill="#6c6c6c"/>
    </g>
  </g>
</svg>
